
<svg width="501" height="271" xmlns="http://www.w3.org/2000/svg">
    <style type="text/css">
        #left {
            fill: red;
        }

        @keyframes arrow-move {
            100% { offset-distance: 100%;}
        }
        #arrow {
            offset-path: path("M0,0 L100,0");
            animation: arrow-move 5s infinite;
        }
        .hidden {
            visibility: hidden;
        }

    </style>
 <!-- Created with Method Draw - http://github.com/duopixel/Method-Draw/ -->
 <g>
  <title>background</title>
  <rect fill="#edf7f7" id="canvas_background" height="273" width="503" y="-1" x="-1"/>
  <g display="none" overflow="visible" y="0" x="0" height="100%" width="100%" id="canvasGrid">
   <rect fill="url(#gridpattern)" stroke-width="0" y="0" x="0" height="100%" width="100%"/>
  </g>
 </g>
 
<path d="M0,0 L100,0"/> 
  
  <path id="arrow" stroke="#000" transform="rotate(-109 166.80326843261716,214.8573303222656) " d="m162.687624,226.036382c-0.970004,-0.621715 -0.84274,-0.998195 1.515629,-4.483301c1.190862,-1.759798 2.165195,-3.250773 2.165195,-3.313277c0,-0.062499 -3.288379,-0.113639 -7.307532,-0.113639l-7.307532,0l0,-3.295924l0,-3.295924l7.365448,0c5.679175,0 7.302045,-0.09929 7.088555,-0.433676c-0.152289,-0.238521 -1.191128,-1.821303 -2.308532,-3.517289c-2.10632,-3.196973 -2.105659,-4.054324 0.003254,-4.320072c1.049527,-0.132249 17.38942,10.02902 17.951055,11.163209c-5.442675,4.049677 -11.948517,8.28865 -17.941456,12.02622c-0.315994,0 -0.866825,-0.187348 -1.224083,-0.416329l-0.000001,0z" stroke-opacity="null" stroke-width="1.5" fill="#ffffff"/>
  <ellipse id="left" stroke="#000" ry="23" rx="23" cy="112.0375" cx="89.9" fill-opacity="null" stroke-opacity="null" stroke-width="1.5" fill="none"/>
  <ellipse id="right" ry="23" rx="23" cy="112.0375" cx="407.9" fill-opacity="null" stroke-opacity="null" stroke-width="1.5" stroke="#000" fill="none">
  
  </ellipse>
  
  <g id="line" class="">
   <line stroke="#000" transform="rotate(5.056496620178223 249.89999389648415,113.03752136230473) " stroke-linecap="null" stroke-linejoin="null" y2="102.108762" x2="383.991445" y1="123.966276" x1="115.808544" fill-opacity="null" stroke-opacity="null" stroke-width="1.5" fill="none"/>
   <text xml:space="preserve" text-anchor="start" font-family="Helvetica, Arial, sans-serif" font-size="24" id="svg_10" y="105.5375" x="224.4" stroke-opacity="null" stroke-width="0" stroke="#000" fill="#000000">1</text>
  </g>
  <path id="hand" stroke="#000" transform="rotate(-90.14762115478516 166.220474243164,215.21818542480463) "  d="m168.087968,224.630761c0.927951,-0.308904 1.68908,-0.596562 0.247597,-0.60498c-1.273034,0.155178 -4.566259,-0.985436 -1.926875,-1.546075c1.651234,-0.584738 5.409076,0.765873 5.429107,-1.54437c-0.29871,-1.447816 -5.146007,-0.317372 -3.551404,-2.259084c1.756163,-0.65128 5.23849,0.883219 5.827607,-1.132097c-0.540037,-1.954088 -3.917821,-0.706997 -5.615582,-1.247041c-1.645845,0.307901 -2.079277,-1.655004 -0.232107,-1.358727c4.270152,-0.208944 8.570088,0.097706 12.825529,-0.328696c0.687397,-0.345333 1.195521,-2.46963 0.328054,-2.612683c-6.198865,-0.116496 -12.408684,-0.00942 -18.597736,-0.356906c-2.223522,-0.020945 -0.524629,-2.174354 1.118428,-1.668633c1.565106,-0.464834 2.185361,-1.683665 3.334046,-2.887165c0.586995,-2.63062 -2.234164,-1.654252 -3.386306,-0.884472c-1.286533,0.76497 -3.499419,2.352832 -4.673335,3.186398c-1.029055,0.674879 -3.399922,1.423765 -4.842143,2.328431c-1.232759,0.397341 -2.58177,0.199523 -3.792565,0.270873c0,3.564198 0,7.128345 0,10.692542c3.425544,1.352816 7.030167,2.541131 10.827842,2.405194c2.224654,-0.008216 4.513207,0.067244 6.679842,-0.452508l0.000001,-0.000001zm-14.113399,1.14317c-1.74869,-0.60939 -3.494208,-1.226546 -5.227054,-1.872214c0.082926,-4.450925 0.16585,-8.9019 0.248771,-13.352825c1.383519,-0.047653 3.436433,0.574766 4.422573,-0.341724c2.651288,-0.771785 4.372642,-2.4788 6.696872,-3.760012c1.635633,-1.165668 2.9421,-1.56351 4.631489,-2.447533c1.283166,-0.53819 1.977938,-0.263358 3.42286,-0.028711c0.630196,0.935331 1.412535,1.418755 1.006572,3.200578c-0.847101,0.386469 -1.946411,2.983969 -0.281717,3.004613c4.63452,0.402802 9.343663,-0.163346 13.941726,0.540644c1.144955,1.405877 1.36331,4.564315 -0.732231,5.455854c-2.005391,0.525861 -4.119791,0.26501 -6.180142,0.328244c-0.000125,1.330017 0.24232,3.02731 -1.385337,3.695424c-1.201851,1.421712 -1.286368,3.510284 -3.22299,4.550587c-1.628758,1.513705 -3.947336,1.981298 -6.208884,1.931392c-3.708384,0.045596 -7.611793,0.368027 -11.132505,-0.904218l0,-0.000101l-0.000001,0.000002z" stroke-width="1.5" fill="black">
    <animateMotion path="M0,0 L-100,-100 l100,0" calcMode="paced"  dur="3s" begin="0s" repeatCount="indefinite"/>

    <!-- <animate attributeName="opacity" from="1" to="0" begin="0s" dur="3s" repeatCount="indefinite" /> -->
  </path>
  <text xml:space="preserve" text-anchor="start" font-family="Helvetica, Arial, sans-serif" font-size="24" id="svg_13" y="119" x="83.4" fill-opacity="null" stroke-opacity="null" stroke-width="0" stroke="#000" fill="#000000">0</text>
  <text xml:space="preserve" text-anchor="start" font-family="Helvetica, Arial, sans-serif" font-size="24" id="svg_14" y="119.5375" x="401.4" fill-opacity="null" stroke-opacity="null" stroke-width="0" stroke="#000" fill="#000000">1</text>

</svg>
